<?xml version="1.0" standalone="no"?>
<!DOCTYPE svg PUBLIC "-//W3C//DTD SVG 20010904//EN"
 "http://www.w3.org/TR/2001/REC-SVG-20010904/DTD/svg10.dtd">
<svg version="1.0" xmlns="http://www.w3.org/2000/svg"
 width="260.000000pt" height="260.000000pt" viewBox="0 0 260.000000 260.000000"
 preserveAspectRatio="xMidYMid meet">
    <path fill-rule="evenodd" clip-rule="evenodd" d="M130 40.6195C86.2 40.6195 50.6931 75.882 50.6931 119.381C50.6931 162.879 86.2 198.142 130 198.142V208.761C80.2944 208.761 40 168.744 40 119.381C40 70.017 80.2944 30 130 30C179.706 30 220 70.017 220 119.381C220 146.837 207.528 171.405 187.923 187.792L181.037 179.668C198.332 165.212 209.307 143.572 209.307 119.381C209.307 75.882 173.8 40.6195 130 40.6195Z" fill="black"/>
    <path fill-rule="evenodd" clip-rule="evenodd" d="M130 159.204C152.146 159.204 170.099 141.374 170.099 119.381C170.099 97.3869 152.146 79.5575 130 79.5575C107.854 79.5575 89.901 97.3869 89.901 119.381C89.901 141.374 107.854 159.204 130 159.204ZM130 169.823C158.052 169.823 180.792 147.239 180.792 119.381C180.792 91.5219 158.052 68.9381 130 68.9381C101.948 68.9381 79.2079 91.5219 79.2079 119.381C79.2079 147.239 101.948 169.823 130 169.823Z" fill="black"/>
    <path d="M169.534 147.996C177.874 147.996 184.599 150.637 189.707 155.917C194.816 161.094 197.37 168.497 197.37 178.127V230H168.595V184.184C168.595 176.211 164.946 172.225 157.648 172.225C153.999 172.225 150.976 173.415 148.578 175.797C146.18 178.075 144.981 181.336 144.981 185.581V230H116.206V119.419H144.981V159.645C151.445 151.879 159.629 147.996 169.534 147.996Z" fill="black"/>
</svg>
