<?xml version="1.0" standalone="no"?>
<!DOCTYPE svg PUBLIC "-//W3C//DTD SVG 20010904//EN"
 "http://www.w3.org/TR/2001/REC-SVG-20010904/DTD/svg10.dtd">
<svg version="1.0" xmlns="http://www.w3.org/2000/svg"
 width="260.000000pt" height="260.000000pt" viewBox="0 0 260.000000 260.000000"
 preserveAspectRatio="xMidYMid meet">
<metadata>
Created by potrace 1.11, written by Peter Selinger 2001-2013
</metadata>
<path d="M64 130V221H87.0476H110.095L110.235 205.88C110.235 197.62 110.794 178.86 111.213 164.02C112.19 137.98 112.33 137.14 115.683 133.5C122.387 126.22 131.746 123.98 139.987 127.9C148.368 131.96 148.508 132.38 149.206 178.16L149.905 220.02L161.778 219.74C168.343 219.46 178.679 218.62 184.825 217.78L196 216.1V169.9C196 128.18 195.721 122.86 193.346 115.58C183.289 84.78 142.362 75.82 117.079 98.78L111.492 103.68V71.34V39H87.746H64V130Z" fill="black"/>
</svg>
